<svg width="270" height="178" viewBox="0 0 270 178" fill="none" xmlns="http://www.w3.org/2000/svg">
<path d="M38.5781 22.3438C33.9531 21.4062 30.1094 20.9375 27.0469 20.9375C23.8281 20.9375 21.3438 21.9063 19.5938 23.8438C17.8438 25.75 16.9688 28.4688 16.9688 32V38.2812H29.0625V42.875H16.9688V89H11.3438V42.875H2.95312V38.2812H11.3438V31.8125C11.375 26.6875 12.7344 22.7812 15.4219 20.0938C18.1094 17.375 21.8594 16.0156 26.6719 16.0156C30.5469 16.0156 36.375 16.9687 44.1562 18.875V89H38.5781V22.3438ZM91.6406 89C91.0781 87.4062 90.7188 85.0469 90.5625 81.9219C88.5938 84.4844 86.0781 86.4688 83.0156 87.875C79.9844 89.25 76.7656 89.9375 73.3594 89.9375C68.4844 89.9375 64.5312 88.5781 61.5 85.8594C58.5 83.1406 57 79.7031 57 75.5469C57 70.6094 59.0469 66.7031 63.1406 63.8281C67.2656 60.9531 73 59.5156 80.3438 59.5156H90.5156V53.75C90.5156 50.125 89.3906 47.2812 87.1406 45.2188C84.9219 43.125 81.6719 42.0781 77.3906 42.0781C73.4844 42.0781 70.25 43.0781 67.6875 45.0781C65.125 47.0781 63.8438 49.4844 63.8438 52.2969L58.2188 52.25C58.2188 48.2188 60.0938 44.7344 63.8438 41.7969C67.5938 38.8281 72.2031 37.3438 77.6719 37.3438C83.3281 37.3438 87.7812 38.7656 91.0312 41.6094C94.3125 44.4219 96 48.3594 96.0938 53.4219V77.4219C96.0938 82.3281 96.6094 86 97.6406 88.4375V89H91.6406ZM74.0156 84.9688C77.7656 84.9688 81.1094 84.0625 84.0469 82.25C87.0156 80.4375 89.1719 78.0156 90.5156 74.9844V63.8281H80.4844C74.8906 63.8906 70.5156 64.9219 67.3594 66.9219C64.2031 68.8906 62.625 71.6094 62.625 75.0781C62.625 77.9219 63.6719 80.2812 65.7656 82.1562C67.8906 84.0312 70.6406 84.9688 74.0156 84.9688ZM119.812 25.2969V38.2812H130.312V42.875H119.812V76.6719C119.812 79.4844 120.312 81.5781 121.312 82.9531C122.344 84.3281 124.047 85.0156 126.422 85.0156C127.359 85.0156 128.875 84.8594 130.969 84.5469L131.203 89.1406C129.734 89.6719 127.734 89.9375 125.203 89.9375C121.359 89.9375 118.562 88.8281 116.812 86.6094C115.062 84.3594 114.188 81.0625 114.188 76.7188V42.875H104.859V38.2812H114.188V25.2969H119.812Z" fill="white"/>
<path d="M30.75 108.062C29.5625 107.844 28.2969 107.734 26.9531 107.734C23.4531 107.734 20.4844 108.719 18.0469 110.688C15.6406 112.625 13.9219 115.453 12.8906 119.172V154H7.3125V103.281H12.7969L12.8906 111.344C15.8594 105.344 20.625 102.344 27.1875 102.344C28.75 102.344 29.9844 102.547 30.8906 102.953L30.75 108.062ZM58.3594 154.938C54.0469 154.938 50.1406 153.875 46.6406 151.75C43.1719 149.625 40.4688 146.672 38.5312 142.891C36.5938 139.078 35.625 134.812 35.625 130.094V128.078C35.625 123.203 36.5625 118.812 38.4375 114.906C40.3438 111 42.9844 107.938 46.3594 105.719C49.7344 103.469 53.3906 102.344 57.3281 102.344C63.4844 102.344 68.3594 104.453 71.9531 108.672C75.5781 112.859 77.3906 118.594 77.3906 125.875V129.016H41.2031V130.094C41.2031 135.844 42.8438 140.641 46.125 144.484C49.4375 148.297 53.5938 150.203 58.5938 150.203C61.5938 150.203 64.2344 149.656 66.5156 148.562C68.8281 147.469 70.9219 145.719 72.7969 143.312L76.3125 145.984C72.1875 151.953 66.2031 154.938 58.3594 154.938ZM57.3281 107.125C53.1094 107.125 49.5469 108.672 46.6406 111.766C43.7656 114.859 42.0156 119.016 41.3906 124.234H71.8125V123.625C71.6562 118.75 70.2656 114.781 67.6406 111.719C65.0156 108.656 61.5781 107.125 57.3281 107.125ZM107.062 150.203C110.969 150.203 114.234 149.109 116.859 146.922C119.516 144.703 120.953 141.844 121.172 138.344H126.562C126.406 141.438 125.438 144.266 123.656 146.828C121.875 149.359 119.5 151.344 116.531 152.781C113.594 154.219 110.438 154.938 107.062 154.938C100.406 154.938 95.125 152.625 91.2188 148C87.3438 143.375 85.4062 137.156 85.4062 129.344V127.656C85.4062 122.656 86.2812 118.234 88.0312 114.391C89.7812 110.547 92.2812 107.578 95.5312 105.484C98.8125 103.391 102.641 102.344 107.016 102.344C112.578 102.344 117.156 104 120.75 107.312C124.375 110.625 126.312 114.984 126.562 120.391H121.172C120.922 116.422 119.484 113.219 116.859 110.781C114.266 108.344 110.984 107.125 107.016 107.125C101.953 107.125 98.0156 108.953 95.2031 112.609C92.4219 116.266 91.0312 121.391 91.0312 127.984V129.625C91.0312 136.094 92.4219 141.141 95.2031 144.766C98.0156 148.391 101.969 150.203 107.062 150.203ZM134.719 127.891C134.719 123.016 135.656 118.625 137.531 114.719C139.438 110.812 142.109 107.781 145.547 105.625C149.016 103.438 152.938 102.344 157.312 102.344C164.062 102.344 169.531 104.719 173.719 109.469C177.906 114.188 180 120.453 180 128.266V129.438C180 134.344 179.047 138.766 177.141 142.703C175.266 146.609 172.609 149.625 169.172 151.75C165.734 153.875 161.812 154.938 157.406 154.938C150.688 154.938 145.219 152.578 141 147.859C136.812 143.109 134.719 136.828 134.719 129.016V127.891ZM140.344 129.438C140.344 135.5 141.906 140.484 145.031 144.391C148.188 148.266 152.312 150.203 157.406 150.203C162.469 150.203 166.562 148.266 169.688 144.391C172.844 140.484 174.422 135.344 174.422 128.969V127.891C174.422 124.016 173.703 120.469 172.266 117.25C170.828 114.031 168.812 111.547 166.219 109.797C163.625 108.016 160.656 107.125 157.312 107.125C152.312 107.125 148.234 109.094 145.078 113.031C141.922 116.938 140.344 122.062 140.344 128.406V129.438ZM215.062 108.062C213.875 107.844 212.609 107.734 211.266 107.734C207.766 107.734 204.797 108.719 202.359 110.688C199.953 112.625 198.234 115.453 197.203 119.172V154H191.625V103.281H197.109L197.203 111.344C200.172 105.344 204.938 102.344 211.5 102.344C213.062 102.344 214.297 102.547 215.203 102.953L215.062 108.062ZM220.781 128.172C220.781 120.297 222.531 114.031 226.031 109.375C229.562 104.688 234.344 102.344 240.375 102.344C247.219 102.344 252.438 105.047 256.031 110.453V82H261.609V154H256.359L256.125 147.25C252.531 152.375 247.25 154.938 240.281 154.938C234.438 154.938 229.719 152.594 226.125 147.906C222.562 143.188 220.781 136.828 220.781 128.828V128.172ZM226.453 129.156C226.453 135.625 227.75 140.734 230.344 144.484C232.938 148.203 236.594 150.062 241.312 150.062C248.219 150.062 253.125 147.016 256.031 140.922V117.109C253.125 110.516 248.25 107.219 241.406 107.219C236.688 107.219 233.016 109.078 230.391 112.797C227.766 116.484 226.453 121.938 226.453 129.156Z" fill="white"/>
</svg>
